<svg xmlns="http://www.w3.org/2000/svg" viewBox="0 0 211.98 35.44"><defs><style>.cls-1{fill:#3c90f6;}.cls-2{fill:#edb63f;}</style></defs><g id="Layer_2" data-name="Layer 2"><g id="Layer_1-2" data-name="Layer 1"><path class="cls-1" d="M0,34.87V20.13A10.46,10.46,0,0,1,1.3,15,9.56,9.56,0,0,1,5,11.2a11.73,11.73,0,0,1,5.9-1.39,12.54,12.54,0,0,1,3.36.46,9.08,9.08,0,0,1,3.12,1.53,7.67,7.67,0,0,1,2.31,2.91h.05a8.49,8.49,0,0,1,2.4-2.91,9.08,9.08,0,0,1,3.12-1.53,12.67,12.67,0,0,1,3.4-.46,11.63,11.63,0,0,1,5.86,1.39A9.56,9.56,0,0,1,38.3,15a10.46,10.46,0,0,1,1.3,5.18V34.87H35.18V20.13a6.41,6.41,0,0,0-.86-3.31,6.34,6.34,0,0,0-5.66-3.22,6.6,6.6,0,0,0-3.36.89,6.69,6.69,0,0,0-2.43,2.35A6.24,6.24,0,0,0,22,20.13V34.87H17.57V20.13a6.24,6.24,0,0,0-.89-3.29,6.76,6.76,0,0,0-2.4-2.35,6.59,6.59,0,0,0-3.38-.89,6.38,6.38,0,0,0-3.29.86,6.51,6.51,0,0,0-2.33,2.36,6.41,6.41,0,0,0-.86,3.31V34.87Z"/><path class="cls-1" d="M59,34.87a16.16,16.16,0,0,1-7.15-1.52A11.52,11.52,0,0,1,47,29.08a11.77,11.77,0,0,1-1.76-6.46,14.19,14.19,0,0,1,1.49-6.55,11.59,11.59,0,0,1,4.13-4.58A11.2,11.2,0,0,1,57,9.81a11.4,11.4,0,0,1,6.32,1.63,10,10,0,0,1,3.76,4.39A14.7,14.7,0,0,1,68.35,22c0,.35,0,.72,0,1.11a6.53,6.53,0,0,1-.12,1H50a7.11,7.11,0,0,0,1.49,3.82,7.72,7.72,0,0,0,3.19,2.35,11.22,11.22,0,0,0,4.29.79h6.39v3.8ZM49.92,21h14a11.45,11.45,0,0,0-.19-1.94A8,8,0,0,0,63,17a6.62,6.62,0,0,0-1.27-1.77,5.82,5.82,0,0,0-2-1.27A7.25,7.25,0,0,0,57,13.51a6.44,6.44,0,0,0-3,.64,7.07,7.07,0,0,0-2.18,1.73A7.59,7.59,0,0,0,50.5,18.3,10.06,10.06,0,0,0,49.92,21Z"/><path class="cls-1" d="M74,34.87V20.71A11,11,0,0,1,75.43,15a10.15,10.15,0,0,1,4.06-3.81,13.45,13.45,0,0,1,11.83,0,10.13,10.13,0,0,1,4,3.81,10.89,10.89,0,0,1,1.47,5.72V34.87H92.4V20.75a7.2,7.2,0,0,0-1-3.81,6.87,6.87,0,0,0-2.6-2.48,7.27,7.27,0,0,0-6.86,0,6.77,6.77,0,0,0-2.59,2.48,7.11,7.11,0,0,0-1,3.81V34.87Z"/><path class="cls-1" d="M101,14.18v-3.8h17v3.8Zm11.19,20.69a6.45,6.45,0,0,1-7-7V4.24h4.42V27.62a3.54,3.54,0,0,0,.89,2.52,3.26,3.26,0,0,0,2.47.93h5v3.8Z"/><path class="cls-1" d="M134.11,35.44a12.82,12.82,0,0,1-6.62-1.7,12.6,12.6,0,0,1-4.56-4.61,12.76,12.76,0,0,1-1.68-6.51A12.56,12.56,0,0,1,134.11,9.81a13,13,0,0,1,6.65,1.7,12.45,12.45,0,0,1,4.56,4.61,12.93,12.93,0,0,1,1.66,6.5,12.94,12.94,0,0,1-1.66,6.51,12.37,12.37,0,0,1-4.56,4.61A13,13,0,0,1,134.11,35.44Zm0-3.79a8,8,0,0,0,4.42-1.2,8.34,8.34,0,0,0,2.93-3.24,9.88,9.88,0,0,0,1-4.59,9.87,9.87,0,0,0-1-4.58,8.34,8.34,0,0,0-2.93-3.24,8.68,8.68,0,0,0-8.81,0,8.24,8.24,0,0,0-3,3.24,9.75,9.75,0,0,0-1.06,4.58,9.77,9.77,0,0,0,1.06,4.59,8.24,8.24,0,0,0,3,3.24A8,8,0,0,0,134.11,31.65Z"/><path class="cls-1" d="M192.63,10.13V24.87a10.59,10.59,0,0,1-1.29,5.18,9.65,9.65,0,0,1-3.75,3.75,11.84,11.84,0,0,1-5.9,1.39,12.54,12.54,0,0,1-3.36-.46,9.08,9.08,0,0,1-3.12-1.53,7.67,7.67,0,0,1-2.31-2.91h0a8.49,8.49,0,0,1-2.4,2.91,9.08,9.08,0,0,1-3.12,1.53,12.74,12.74,0,0,1-3.41.46,11.76,11.76,0,0,1-5.86-1.39,9.56,9.56,0,0,1-3.74-3.75,10.49,10.49,0,0,1-1.3-5.18V10.13h4.42V24.87a6.53,6.53,0,0,0,.86,3.31A6.4,6.4,0,0,0,164,31.4a6.65,6.65,0,0,0,3.36-.89,6.74,6.74,0,0,0,2.42-2.35,6.27,6.27,0,0,0,.89-3.29V10.13h4.41V24.87a6.27,6.27,0,0,0,.89,3.29,6.76,6.76,0,0,0,2.4,2.35,6.6,6.6,0,0,0,3.39.89,6.39,6.39,0,0,0,5.61-3.22,6.44,6.44,0,0,0,.87-3.31V10.13Z"/><path class="cls-1" d="M200,34.66V17.14A6.94,6.94,0,0,1,201.83,12a6.9,6.9,0,0,1,5.11-1.85h5V14h-4.22a3.31,3.31,0,0,0-2.48.91,3.5,3.5,0,0,0-.88,2.54V34.66Z"/><circle class="cls-2" cx="85.58" cy="4" r="4"/></g></g></svg>